<?xml version="1.0" encoding="us-ascii" standalone="no"?><svg xmlns="http://www.w3.org/2000/svg" xmlns:xlink="http://www.w3.org/1999/xlink" contentStyleType="text/css" height="797px" preserveAspectRatio="none" style="width:1812px;height:797px;background:#FFFFFF;" version="1.1" viewBox="0 0 1812 797" width="1812px" zoomAndPan="magnify"><defs/><g><text fill="#000000" font-family="sans-serif" font-size="14" font-weight="bold" lengthAdjust="spacing" textLength="316" x="741" y="23.5352">ER Diagram: SPF Event &amp; Coworking System</text><!--class user--><g id="elem_user"><rect codeLine="7" fill="#F1F1F1" height="124.9297" id="user" rx="2.5" ry="2.5" style="stroke:#181818;stroke-width:0.5;" width="234" x="750" y="212.9283"/><text fill="#000000" font-family="sans-serif" font-size="14" lengthAdjust="spacing" textLength="38" x="848" y="231.4634">Users</text><line style="stroke:#181818;stroke-width:0.5;" x1="751" x2="983" y1="239.4166" y2="239.4166"/><ellipse cx="761" cy="253.1607" fill="#000000" rx="3" ry="3" style="stroke:#000000;stroke-width:1.0;"/><text fill="#000000" font-family="sans-serif" font-size="14" lengthAdjust="spacing" textLength="94" x="770" y="256.9517">id : UUID &#171;PK&#187;</text><line style="stroke:#181818;stroke-width:1.0;" x1="751" x2="983" y1="263.9048" y2="263.9048"/><text fill="#000000" font-family="sans-serif" font-size="14" lengthAdjust="spacing" textLength="154" x="756" y="281.44">name : VARCHAR(100)</text><text fill="#000000" font-family="sans-serif" font-size="14" lengthAdjust="spacing" textLength="153" x="756" y="297.9283">email : VARCHAR(100)</text><text fill="#000000" font-family="sans-serif" font-size="14" lengthAdjust="spacing" textLength="222" x="756" y="314.4166">password_hash : VARCHAR(255)</text><text fill="#000000" font-family="sans-serif" font-size="14" lengthAdjust="spacing" textLength="163" x="756" y="330.9048">created_at : TIMESTAMP</text></g><!--class role--><g id="elem_role"><rect codeLine="16" fill="#F1F1F1" height="75.4648" id="role" rx="2.5" ry="2.5" style="stroke:#181818;stroke-width:0.5;" width="166" x="15" y="237.6583"/><text fill="#000000" font-family="sans-serif" font-size="14" lengthAdjust="spacing" textLength="37" x="79.5" y="256.1934">Roles</text><line style="stroke:#181818;stroke-width:0.5;" x1="16" x2="180" y1="264.1466" y2="264.1466"/><ellipse cx="26" cy="277.8907" fill="#000000" rx="3" ry="3" style="stroke:#000000;stroke-width:1.0;"/><text fill="#000000" font-family="sans-serif" font-size="14" lengthAdjust="spacing" textLength="94" x="35" y="281.6817">id : UUID &#171;PK&#187;</text><line style="stroke:#181818;stroke-width:1.0;" x1="16" x2="180" y1="288.6348" y2="288.6348"/><text fill="#000000" font-family="sans-serif" font-size="14" lengthAdjust="spacing" textLength="154" x="21" y="306.17">name : VARCHAR(100)</text></g><!--class user_role--><g id="elem_user_role"><rect codeLine="23" fill="#F1F1F1" height="75.4648" id="user_role" rx="2.5" ry="2.5" style="stroke:#181818;stroke-width:0.5;" width="182" x="7" y="455.5683"/><text fill="#000000" font-family="sans-serif" font-size="14" lengthAdjust="spacing" textLength="82" x="57" y="474.1034">Users_Roles</text><line style="stroke:#181818;stroke-width:0.5;" x1="8" x2="188" y1="482.0566" y2="482.0566"/><ellipse cx="18" cy="495.8007" fill="#000000" rx="3" ry="3" style="stroke:#000000;stroke-width:1.0;"/><text fill="#000000" font-family="sans-serif" font-size="14" lengthAdjust="spacing" textLength="156" x="27" y="499.5917">user_id : UUID &#171;PK, FK&#187;</text><ellipse cx="18" cy="512.289" fill="#000000" rx="3" ry="3" style="stroke:#000000;stroke-width:1.0;"/><text fill="#000000" font-family="sans-serif" font-size="14" lengthAdjust="spacing" textLength="153" x="27" y="516.08">role_id : UUID &#171;PK, FK&#187;</text><line style="stroke:#181818;stroke-width:0.5;" x1="8" x2="188" y1="523.0331" y2="523.0331"/></g><!--class department--><g id="elem_department"><rect codeLine="28" fill="#F1F1F1" height="108.4414" id="department" rx="2.5" ry="2.5" style="stroke:#181818;stroke-width:0.5;" width="359" x="772.5" y="44.4883"/><text fill="#000000" font-family="sans-serif" font-size="14" lengthAdjust="spacing" textLength="88" x="908" y="63.0234">Departments</text><line style="stroke:#181818;stroke-width:0.5;" x1="773.5" x2="1130.5" y1="70.9766" y2="70.9766"/><ellipse cx="783.5" cy="84.7207" fill="#000000" rx="3" ry="3" style="stroke:#000000;stroke-width:1.0;"/><text fill="#000000" font-family="sans-serif" font-size="14" lengthAdjust="spacing" textLength="94" x="792.5" y="88.5117">id : UUID &#171;PK&#187;</text><line style="stroke:#181818;stroke-width:1.0;" x1="773.5" x2="1130.5" y1="95.4648" y2="95.4648"/><text fill="#000000" font-family="sans-serif" font-size="14" lengthAdjust="spacing" textLength="145" x="778.5" y="113">name : VARCHAR(50)</text><text fill="#000000" font-family="sans-serif" font-size="14" lengthAdjust="spacing" textLength="124" x="778.5" y="129.4883">description : TEXT</text><text fill="#000000" font-family="sans-serif" font-size="14" lengthAdjust="spacing" textLength="347" x="778.5" y="145.9766">head_user_id : UUID &#171;FK&#187; -- &#1043;&#1086;&#1083;&#1086;&#1074;&#1072; &#1076;&#1077;&#1087;&#1072;&#1088;&#1090;&#1072;&#1084;&#1077;&#1085;&#1090;&#1091;</text></g><!--class user_department--><g id="elem_user_department"><rect codeLine="37" fill="#F1F1F1" height="75.4648" id="user_department" rx="2.5" ry="2.5" style="stroke:#181818;stroke-width:0.5;" width="232" x="1027" y="455.5683"/><text fill="#000000" font-family="sans-serif" font-size="14" lengthAdjust="spacing" textLength="133" x="1076.5" y="474.1034">Users_Departments</text><line style="stroke:#181818;stroke-width:0.5;" x1="1028" x2="1258" y1="482.0566" y2="482.0566"/><ellipse cx="1038" cy="495.8007" fill="#000000" rx="3" ry="3" style="stroke:#000000;stroke-width:1.0;"/><text fill="#000000" font-family="sans-serif" font-size="14" lengthAdjust="spacing" textLength="156" x="1047" y="499.5917">user_id : UUID &#171;PK, FK&#187;</text><ellipse cx="1038" cy="512.289" fill="#000000" rx="3" ry="3" style="stroke:#000000;stroke-width:1.0;"/><text fill="#000000" font-family="sans-serif" font-size="14" lengthAdjust="spacing" textLength="206" x="1047" y="516.08">department_id : UUID &#171;PK, FK&#187;</text><line style="stroke:#181818;stroke-width:0.5;" x1="1028" x2="1258" y1="523.0331" y2="523.0331"/></g><!--class event_tag--><g id="elem_event_tag"><rect codeLine="42" fill="#F1F1F1" height="75.4648" id="event_tag" rx="2.5" ry="2.5" style="stroke:#181818;stroke-width:0.5;" width="157" x="224.5" y="455.5683"/><text fill="#000000" font-family="sans-serif" font-size="14" lengthAdjust="spacing" textLength="70" x="268" y="474.1034">EventTags</text><line style="stroke:#181818;stroke-width:0.5;" x1="225.5" x2="380.5" y1="482.0566" y2="482.0566"/><ellipse cx="235.5" cy="495.8007" fill="#000000" rx="3" ry="3" style="stroke:#000000;stroke-width:1.0;"/><text fill="#000000" font-family="sans-serif" font-size="14" lengthAdjust="spacing" textLength="94" x="244.5" y="499.5917">id : UUID &#171;PK&#187;</text><line style="stroke:#181818;stroke-width:1.0;" x1="225.5" x2="380.5" y1="506.5448" y2="506.5448"/><text fill="#000000" font-family="sans-serif" font-size="14" lengthAdjust="spacing" textLength="145" x="230.5" y="524.08">name : VARCHAR(50)</text></g><!--class event--><g id="elem_event"><rect codeLine="48" fill="#F1F1F1" height="190.8828" id="event" rx="2.5" ry="2.5" style="stroke:#181818;stroke-width:0.5;" width="198" x="581" y="397.8583"/><text fill="#000000" font-family="sans-serif" font-size="14" lengthAdjust="spacing" textLength="44" x="658" y="416.3934">Events</text><line style="stroke:#181818;stroke-width:0.5;" x1="582" x2="778" y1="424.3466" y2="424.3466"/><ellipse cx="592" cy="438.0907" fill="#000000" rx="3" ry="3" style="stroke:#000000;stroke-width:1.0;"/><text fill="#000000" font-family="sans-serif" font-size="14" lengthAdjust="spacing" textLength="94" x="601" y="441.8817">id : UUID &#171;PK&#187;</text><line style="stroke:#181818;stroke-width:1.0;" x1="582" x2="778" y1="448.8348" y2="448.8348"/><text fill="#000000" font-family="sans-serif" font-size="14" lengthAdjust="spacing" textLength="142" x="587" y="466.37">title : VARCHAR(200)</text><text fill="#000000" font-family="sans-serif" font-size="14" lengthAdjust="spacing" textLength="124" x="587" y="482.8583">description : TEXT</text><text fill="#000000" font-family="sans-serif" font-size="14" lengthAdjust="spacing" textLength="186" x="587" y="499.3466">poster_url : VARCHAR(255)</text><text fill="#000000" font-family="sans-serif" font-size="14" lengthAdjust="spacing" textLength="167" x="587" y="515.8348">location: VARCHAR(255)</text><text fill="#000000" font-family="sans-serif" font-size="14" lengthAdjust="spacing" textLength="153" x="587" y="532.3231">max_participants : INT</text><text fill="#000000" font-family="sans-serif" font-size="14" lengthAdjust="spacing" textLength="163" x="587" y="548.8114">is_published : BOOLEAN</text><text fill="#000000" font-family="sans-serif" font-size="14" lengthAdjust="spacing" textLength="155" x="587" y="565.2997">created_by : UUID &#171;FK&#187;</text><text fill="#000000" font-family="sans-serif" font-size="14" lengthAdjust="spacing" textLength="163" x="587" y="581.788">created_at : TIMESTAMP</text></g><!--class event_event_tag--><g id="elem_event_event_tag"><rect codeLine="62" fill="#F1F1F1" height="75.4648" id="event_event_tag" rx="2.5" ry="2.5" style="stroke:#181818;stroke-width:0.5;" width="218" x="53" y="681.7183"/><text fill="#000000" font-family="sans-serif" font-size="14" lengthAdjust="spacing" textLength="121" x="101.5" y="700.2534">Events_EventTags</text><line style="stroke:#181818;stroke-width:0.5;" x1="54" x2="270" y1="708.2066" y2="708.2066"/><ellipse cx="64" cy="721.9507" fill="#000000" rx="3" ry="3" style="stroke:#000000;stroke-width:1.0;"/><text fill="#000000" font-family="sans-serif" font-size="14" lengthAdjust="spacing" textLength="163" x="73" y="725.7417">event_id : UUID &#171;PK, FK&#187;</text><ellipse cx="64" cy="738.439" fill="#000000" rx="3" ry="3" style="stroke:#000000;stroke-width:1.0;"/><text fill="#000000" font-family="sans-serif" font-size="14" lengthAdjust="spacing" textLength="192" x="73" y="742.23">event_tag_id : UUID &#171;PK, FK&#187;</text><line style="stroke:#181818;stroke-width:0.5;" x1="54" x2="270" y1="749.1831" y2="749.1831"/></g><!--class reg--><g id="elem_reg"><rect codeLine="67" fill="#F1F1F1" height="108.4414" id="reg" rx="2.5" ry="2.5" style="stroke:#181818;stroke-width:0.5;" width="208" x="1597" y="665.2283"/><text fill="#000000" font-family="sans-serif" font-size="14" lengthAdjust="spacing" textLength="134" x="1634" y="683.7634">Event_Registrations</text><line style="stroke:#181818;stroke-width:0.5;" x1="1598" x2="1804" y1="691.7166" y2="691.7166"/><ellipse cx="1608" cy="705.4607" fill="#000000" rx="3" ry="3" style="stroke:#000000;stroke-width:1.0;"/><text fill="#000000" font-family="sans-serif" font-size="14" lengthAdjust="spacing" textLength="94" x="1617" y="709.2517">id : UUID &#171;PK&#187;</text><line style="stroke:#181818;stroke-width:1.0;" x1="1598" x2="1804" y1="716.2048" y2="716.2048"/><ellipse cx="1608" cy="729.949" fill="#000000" rx="3" ry="3" style="stroke:#000000;stroke-width:1.0;"/><text fill="#000000" font-family="sans-serif" font-size="14" lengthAdjust="spacing" textLength="131" x="1617" y="733.74">user_id : UUID &#171;FK&#187;</text><ellipse cx="1608" cy="746.4373" fill="#000000" rx="3" ry="3" style="stroke:#000000;stroke-width:1.0;"/><text fill="#000000" font-family="sans-serif" font-size="14" lengthAdjust="spacing" textLength="138" x="1617" y="750.2283">event_id : UUID &#171;FK&#187;</text><text fill="#000000" font-family="sans-serif" font-size="14" lengthAdjust="spacing" textLength="182" x="1617" y="766.7166">registered_at : TIMESTAMP</text></g><!--class org--><g id="elem_org"><rect codeLine="76" fill="#F1F1F1" height="108.4414" id="org" rx="2.5" ry="2.5" style="stroke:#181818;stroke-width:0.5;" width="233" x="306.5" y="665.2283"/><text fill="#000000" font-family="sans-serif" font-size="14" lengthAdjust="spacing" textLength="120" x="363" y="683.7634">Event_Organizers</text><line style="stroke:#181818;stroke-width:0.5;" x1="307.5" x2="538.5" y1="691.7166" y2="691.7166"/><ellipse cx="317.5" cy="705.4607" fill="#000000" rx="3" ry="3" style="stroke:#000000;stroke-width:1.0;"/><text fill="#000000" font-family="sans-serif" font-size="14" lengthAdjust="spacing" textLength="94" x="326.5" y="709.2517">id : UUID &#171;PK&#187;</text><line style="stroke:#181818;stroke-width:1.0;" x1="307.5" x2="538.5" y1="716.2048" y2="716.2048"/><ellipse cx="317.5" cy="729.949" fill="#000000" rx="3" ry="3" style="stroke:#000000;stroke-width:1.0;"/><text fill="#000000" font-family="sans-serif" font-size="14" lengthAdjust="spacing" textLength="138" x="326.5" y="733.74">event_id : UUID &#171;FK&#187;</text><ellipse cx="317.5" cy="746.4373" fill="#000000" rx="3" ry="3" style="stroke:#000000;stroke-width:1.0;"/><text fill="#000000" font-family="sans-serif" font-size="14" lengthAdjust="spacing" textLength="131" x="326.5" y="750.2283">user_id : UUID &#171;FK&#187;</text><text fill="#000000" font-family="sans-serif" font-size="14" lengthAdjust="spacing" textLength="207" x="326.5" y="766.7166">role_in_event : VARCHAR(100)</text></g><!--class org_request--><g id="elem_org_request"><rect codeLine="85" fill="#F1F1F1" height="124.9297" id="org_request" rx="2.5" ry="2.5" style="stroke:#181818;stroke-width:0.5;" width="362" x="575" y="656.9883"/><text fill="#000000" font-family="sans-serif" font-size="14" lengthAdjust="spacing" textLength="203" x="654.5" y="675.5234">Event_Organization_Requests</text><line style="stroke:#181818;stroke-width:0.5;" x1="576" x2="936" y1="683.4766" y2="683.4766"/><ellipse cx="586" cy="697.2207" fill="#000000" rx="3" ry="3" style="stroke:#000000;stroke-width:1.0;"/><text fill="#000000" font-family="sans-serif" font-size="14" lengthAdjust="spacing" textLength="94" x="595" y="701.0117">id : UUID &#171;PK&#187;</text><line style="stroke:#181818;stroke-width:1.0;" x1="576" x2="936" y1="707.9648" y2="707.9648"/><ellipse cx="586" cy="721.709" fill="#000000" rx="3" ry="3" style="stroke:#000000;stroke-width:1.0;"/><text fill="#000000" font-family="sans-serif" font-size="14" lengthAdjust="spacing" textLength="212" x="595" y="725.5">requesting_user_id : UUID &#171;FK&#187;</text><ellipse cx="586" cy="738.1973" fill="#000000" rx="3" ry="3" style="stroke:#000000;stroke-width:1.0;"/><text fill="#000000" font-family="sans-serif" font-size="14" lengthAdjust="spacing" textLength="138" x="595" y="741.9883">event_id : UUID &#171;FK&#187;</text><text fill="#000000" font-family="sans-serif" font-size="14" lengthAdjust="spacing" textLength="336" x="595" y="758.4766">status : ENUM('PENDING', 'APPROVED', 'REJECTED')</text><text fill="#000000" font-family="sans-serif" font-size="14" lengthAdjust="spacing" textLength="163" x="595" y="774.9648">created_at : TIMESTAMP</text></g><!--class booking--><g id="elem_booking"><rect codeLine="94" fill="#F1F1F1" height="141.418" id="booking" rx="2.5" ry="2.5" style="stroke:#181818;stroke-width:0.5;" width="589" x="972.5" y="648.7383"/><text fill="#000000" font-family="sans-serif" font-size="14" lengthAdjust="spacing" textLength="145" x="1194.5" y="667.2734">Coworking_Bookings</text><line style="stroke:#181818;stroke-width:0.5;" x1="973.5" x2="1560.5" y1="675.2266" y2="675.2266"/><ellipse cx="983.5" cy="688.9707" fill="#000000" rx="3" ry="3" style="stroke:#000000;stroke-width:1.0;"/><text fill="#000000" font-family="sans-serif" font-size="14" lengthAdjust="spacing" textLength="94" x="992.5" y="692.7617">id : UUID &#171;PK&#187;</text><line style="stroke:#181818;stroke-width:1.0;" x1="973.5" x2="1560.5" y1="699.7148" y2="699.7148"/><ellipse cx="983.5" cy="713.459" fill="#000000" rx="3" ry="3" style="stroke:#000000;stroke-width:1.0;"/><text fill="#000000" font-family="sans-serif" font-size="14" lengthAdjust="spacing" textLength="138" x="992.5" y="717.25">event_id : UUID &#171;FK&#187;</text><text fill="#000000" font-family="sans-serif" font-size="14" lengthAdjust="spacing" textLength="150" x="992.5" y="733.7383">start_time : DATETIME</text><text fill="#000000" font-family="sans-serif" font-size="14" lengthAdjust="spacing" textLength="145" x="992.5" y="750.2266">end_time : DATETIME</text><text fill="#000000" font-family="sans-serif" font-size="14" lengthAdjust="spacing" textLength="352" x="992.5" y="766.7148">status : ENUM('PENDING', 'CONFIRMED', 'CANCELED')</text><text fill="#000000" font-family="sans-serif" font-size="14" lengthAdjust="spacing" textLength="563" x="992.5" y="783.2031">space_manager_id : UUID &#171;FK&#187; -- &#1052;&#1086;&#1078;&#1077; &#1073;&#1091;&#1090;&#1080; NULL, &#1087;&#1086;&#1082;&#1080; &#1084;&#1077;&#1085;&#1077;&#1076;&#1078;&#1077;&#1088; &#1085;&#1077; &#1074;&#1079;&#1103;&#1074; &#1079;&#1072;&#1103;&#1074;&#1082;&#1091;</text></g><!--link user to user_role--><g id="link_user_user_role"><path codeLine="107" d="M741.76,321.1583 C546.77,321.1583 185,321.1583 185,321.1583 C185,321.1583 185,386.3783 185,437.0983 " fill="none" id="user-user_role" style="stroke:#181818;stroke-width:1.0;stroke-dasharray:7.0,7.0;"/><line style="stroke:#181818;stroke-width:1.0;" x1="745.76" x2="745.76" y1="317.1583" y2="325.1583"/><line style="stroke:#181818;stroke-width:1.0;" x1="742.76" x2="742.76" y1="317.1583" y2="325.1583"/><line style="stroke:#181818;stroke-width:1.0;" x1="741.76" x2="749.76" y1="321.1583" y2="321.1583"/><line style="stroke:#181818;stroke-width:1.0;" x1="185" x2="191" y1="447.0983" y2="455.0983"/><line style="stroke:#181818;stroke-width:1.0;" x1="185" x2="179" y1="447.0983" y2="455.0983"/><line style="stroke:#181818;stroke-width:1.0;" x1="185" x2="185" y1="447.0983" y2="455.0983"/><ellipse cx="185" cy="441.0983" fill="none" rx="4" ry="4" style="stroke:#181818;stroke-width:1.0;"/><text fill="#000000" font-family="sans-serif" font-size="13" lengthAdjust="spacing" textLength="50" x="349.41" y="317.7266">has role</text></g><!--link role to user_role--><g id="link_role_user_role"><path codeLine="108" d="M98,321.5983 C98,361.3883 98,397.3583 98,437.1383 " fill="none" id="role-user_role" style="stroke:#181818;stroke-width:1.0;stroke-dasharray:7.0,7.0;"/><line style="stroke:#181818;stroke-width:1.0;" x1="94" x2="102" y1="317.5983" y2="317.5983"/><line style="stroke:#181818;stroke-width:1.0;" x1="94" x2="102" y1="320.5983" y2="320.5983"/><line style="stroke:#181818;stroke-width:1.0;" x1="98" x2="98" y1="321.5983" y2="313.5983"/><line style="stroke:#181818;stroke-width:1.0;" x1="98" x2="104" y1="447.1383" y2="455.1383"/><line style="stroke:#181818;stroke-width:1.0;" x1="98" x2="92" y1="447.1383" y2="455.1383"/><line style="stroke:#181818;stroke-width:1.0;" x1="98" x2="98" y1="447.1383" y2="455.1383"/><ellipse cx="98" cy="441.1383" fill="none" rx="4" ry="4" style="stroke:#181818;stroke-width:1.0;"/><text fill="#000000" font-family="sans-serif" font-size="13" lengthAdjust="spacing" textLength="73" x="24" y="380.9366">assigned to</text></g><!--link user to user_department--><g id="link_user_user_department"><path codeLine="110" d="M981.13,346.0883 C981.13,410.4183 981.13,493.1583 981.13,493.1583 C981.13,493.1583 982.91,493.1583 1008.65,493.1583 " fill="none" id="user-user_department" style="stroke:#181818;stroke-width:1.0;stroke-dasharray:7.0,7.0;"/><line style="stroke:#181818;stroke-width:1.0;" x1="977.13" x2="985.13" y1="342.0883" y2="342.0883"/><line style="stroke:#181818;stroke-width:1.0;" x1="977.13" x2="985.13" y1="345.0883" y2="345.0883"/><line style="stroke:#181818;stroke-width:1.0;" x1="981.13" x2="981.13" y1="346.0883" y2="338.0883"/><line style="stroke:#181818;stroke-width:1.0;" x1="1018.65" x2="1026.65" y1="493.1583" y2="487.1583"/><line style="stroke:#181818;stroke-width:1.0;" x1="1018.65" x2="1026.65" y1="493.1583" y2="499.1583"/><line style="stroke:#181818;stroke-width:1.0;" x1="1018.65" x2="1026.65" y1="493.1583" y2="493.1583"/><ellipse cx="1012.65" cy="493.1583" fill="none" rx="4" ry="4" style="stroke:#181818;stroke-width:1.0;"/><text fill="#000000" font-family="sans-serif" font-size="13" lengthAdjust="spacing" textLength="68" x="912.13" y="434.9566">member of</text></g><!--link department to user_department--><g id="link_department_user_department"><path codeLine="111" d="M1079.25,161.1583 C1079.25,242.2383 1079.25,366.6883 1079.25,437.0983 " fill="none" id="department-user_department" style="stroke:#181818;stroke-width:1.0;stroke-dasharray:7.0,7.0;"/><line style="stroke:#181818;stroke-width:1.0;" x1="1075.25" x2="1083.25" y1="157.1583" y2="157.1583"/><line style="stroke:#181818;stroke-width:1.0;" x1="1075.25" x2="1083.25" y1="160.1583" y2="160.1583"/><line style="stroke:#181818;stroke-width:1.0;" x1="1079.25" x2="1079.25" y1="161.1583" y2="153.1583"/><line style="stroke:#181818;stroke-width:1.0;" x1="1079.25" x2="1085.25" y1="447.0983" y2="455.0983"/><line style="stroke:#181818;stroke-width:1.0;" x1="1079.25" x2="1073.25" y1="447.0983" y2="455.0983"/><line style="stroke:#181818;stroke-width:1.0;" x1="1079.25" x2="1079.25" y1="447.0983" y2="455.0983"/><ellipse cx="1079.25" cy="441.0983" fill="none" rx="4" ry="4" style="stroke:#181818;stroke-width:1.0;"/><text fill="#000000" font-family="sans-serif" font-size="13" lengthAdjust="spacing" textLength="84" x="994.25" y="300.6966">has members</text></g><!--link department to user--><g id="link_department_user"><path codeLine="114" d="M878.25,171.1583 C878.25,189.9183 878.25,185.0783 878.25,204.4583 " fill="none" id="department-user" style="stroke:#181818;stroke-width:1.0;stroke-dasharray:7.0,7.0;"/><line style="stroke:#181818;stroke-width:1.0;" x1="878.25" x2="872.25" y1="161.1583" y2="153.1583"/><line style="stroke:#181818;stroke-width:1.0;" x1="878.25" x2="884.25" y1="161.1583" y2="153.1583"/><line style="stroke:#181818;stroke-width:1.0;" x1="878.25" x2="878.25" y1="161.1583" y2="153.1583"/><ellipse cx="878.25" cy="167.1583" fill="none" rx="4" ry="4" style="stroke:#181818;stroke-width:1.0;"/><line style="stroke:#181818;stroke-width:1.0;" x1="882.25" x2="874.25" y1="208.4583" y2="208.4583"/><line style="stroke:#181818;stroke-width:1.0;" x1="882.25" x2="874.25" y1="205.4583" y2="205.4583"/><line style="stroke:#181818;stroke-width:1.0;" x1="878.25" x2="878.25" y1="204.4583" y2="212.4583"/><text fill="#000000" font-family="sans-serif" font-size="13" lengthAdjust="spacing" textLength="64" x="813.25" y="179.3766">headed by</text></g><!--link user to event--><g id="link_user_event"><path codeLine="117" d="M764.5,346.1283 C764.5,364.7383 764.5,359.5483 764.5,379.7483 " fill="none" id="user-event" style="stroke:#181818;stroke-width:1.0;stroke-dasharray:7.0,7.0;"/><line style="stroke:#181818;stroke-width:1.0;" x1="760.5" x2="768.5" y1="342.1283" y2="342.1283"/><line style="stroke:#181818;stroke-width:1.0;" x1="760.5" x2="768.5" y1="345.1283" y2="345.1283"/><line style="stroke:#181818;stroke-width:1.0;" x1="764.5" x2="764.5" y1="346.1283" y2="338.1283"/><line style="stroke:#181818;stroke-width:1.0;" x1="764.5" x2="770.5" y1="389.7483" y2="397.7483"/><line style="stroke:#181818;stroke-width:1.0;" x1="764.5" x2="758.5" y1="389.7483" y2="397.7483"/><line style="stroke:#181818;stroke-width:1.0;" x1="764.5" x2="764.5" y1="389.7483" y2="397.7483"/><ellipse cx="764.5" cy="383.7483" fill="none" rx="4" ry="4" style="stroke:#181818;stroke-width:1.0;"/><text fill="#000000" font-family="sans-serif" font-size="13" lengthAdjust="spacing" textLength="45" x="718.5" y="364.5066">creates</text></g><!--link event to event_event_tag--><g id="link_event_event_event_tag"><path codeLine="120" d="M572.74,550.1583 C447.29,550.1583 255.5,550.1583 255.5,550.1583 C255.5,550.1583 255.5,613.5483 255.5,663.4583 " fill="none" id="event-event_event_tag" style="stroke:#181818;stroke-width:1.0;stroke-dasharray:7.0,7.0;"/><line style="stroke:#181818;stroke-width:1.0;" x1="576.74" x2="576.74" y1="546.1583" y2="554.1583"/><line style="stroke:#181818;stroke-width:1.0;" x1="573.74" x2="573.74" y1="546.1583" y2="554.1583"/><line style="stroke:#181818;stroke-width:1.0;" x1="572.74" x2="580.74" y1="550.1583" y2="550.1583"/><line style="stroke:#181818;stroke-width:1.0;" x1="255.5" x2="261.5" y1="673.4583" y2="681.4583"/><line style="stroke:#181818;stroke-width:1.0;" x1="255.5" x2="249.5" y1="673.4583" y2="681.4583"/><line style="stroke:#181818;stroke-width:1.0;" x1="255.5" x2="255.5" y1="673.4583" y2="681.4583"/><ellipse cx="255.5" cy="667.4583" fill="none" rx="4" ry="4" style="stroke:#181818;stroke-width:1.0;"/><text fill="#000000" font-family="sans-serif" font-size="13" lengthAdjust="spacing" textLength="46" x="305.47" y="546.7266">has tag</text></g><!--link event_tag to event_event_tag--><g id="link_event_tag_event_event_tag"><path codeLine="121" d="M240,539.4083 C240,581.1983 240,621.8583 240,663.5583 " fill="none" id="event_tag-event_event_tag" style="stroke:#181818;stroke-width:1.0;stroke-dasharray:7.0,7.0;"/><line style="stroke:#181818;stroke-width:1.0;" x1="236" x2="244" y1="535.4083" y2="535.4083"/><line style="stroke:#181818;stroke-width:1.0;" x1="236" x2="244" y1="538.4083" y2="538.4083"/><line style="stroke:#181818;stroke-width:1.0;" x1="240" x2="240" y1="539.4083" y2="531.4083"/><line style="stroke:#181818;stroke-width:1.0;" x1="240" x2="246" y1="673.5583" y2="681.5583"/><line style="stroke:#181818;stroke-width:1.0;" x1="240" x2="234" y1="673.5583" y2="681.5583"/><line style="stroke:#181818;stroke-width:1.0;" x1="240" x2="240" y1="673.5583" y2="681.5583"/><ellipse cx="240" cy="667.5583" fill="none" rx="4" ry="4" style="stroke:#181818;stroke-width:1.0;"/><text fill="#000000" font-family="sans-serif" font-size="13" lengthAdjust="spacing" textLength="70" x="169" y="603.0566">tag used in</text></g><!--link user to reg--><g id="link_user_reg"><path codeLine="124" d="M992.15,275.1583 C1229.26,275.1583 1735.67,275.1583 1735.67,275.1583 C1735.67,275.1583 1735.67,528.3283 1735.67,646.9683 " fill="none" id="user-reg" style="stroke:#181818;stroke-width:1.0;stroke-dasharray:7.0,7.0;"/><line style="stroke:#181818;stroke-width:1.0;" x1="988.15" x2="988.15" y1="279.1583" y2="271.1583"/><line style="stroke:#181818;stroke-width:1.0;" x1="991.15" x2="991.15" y1="279.1583" y2="271.1583"/><line style="stroke:#181818;stroke-width:1.0;" x1="992.15" x2="984.15" y1="275.1583" y2="275.1583"/><line style="stroke:#181818;stroke-width:1.0;" x1="1735.67" x2="1741.67" y1="656.9683" y2="664.9683"/><line style="stroke:#181818;stroke-width:1.0;" x1="1735.67" x2="1729.67" y1="656.9683" y2="664.9683"/><line style="stroke:#181818;stroke-width:1.0;" x1="1735.67" x2="1735.67" y1="656.9683" y2="664.9683"/><ellipse cx="1735.67" cy="650.9683" fill="none" rx="4" ry="4" style="stroke:#181818;stroke-width:1.0;"/><text fill="#000000" font-family="sans-serif" font-size="13" lengthAdjust="spacing" textLength="55" x="1498.82" y="271.7266">registers</text></g><!--link event to reg--><g id="link_event_reg"><path codeLine="125" d="M787.09,550.1583 C1037.21,550.1583 1666.33,550.1583 1666.33,550.1583 C1666.33,550.1583 1666.33,597.4683 1666.33,646.9483 " fill="none" id="event-reg" style="stroke:#181818;stroke-width:1.0;stroke-dasharray:7.0,7.0;"/><line style="stroke:#181818;stroke-width:1.0;" x1="783.09" x2="783.09" y1="554.1583" y2="546.1583"/><line style="stroke:#181818;stroke-width:1.0;" x1="786.09" x2="786.09" y1="554.1583" y2="546.1583"/><line style="stroke:#181818;stroke-width:1.0;" x1="787.09" x2="779.09" y1="550.1583" y2="550.1583"/><line style="stroke:#181818;stroke-width:1.0;" x1="1666.33" x2="1672.33" y1="656.9483" y2="664.9483"/><line style="stroke:#181818;stroke-width:1.0;" x1="1666.33" x2="1660.33" y1="656.9483" y2="664.9483"/><line style="stroke:#181818;stroke-width:1.0;" x1="1666.33" x2="1666.33" y1="656.9483" y2="664.9483"/><ellipse cx="1666.33" cy="650.9483" fill="none" rx="4" ry="4" style="stroke:#181818;stroke-width:1.0;"/><text fill="#000000" font-family="sans-serif" font-size="13" lengthAdjust="spacing" textLength="87" x="1192.11" y="546.7266">has attendees</text></g><!--link user to org--><g id="link_user_org"><path codeLine="128" d="M741.58,329.1583 C613.41,329.1583 434.17,329.1583 434.17,329.1583 C434.17,329.1583 434.17,539.3583 434.17,646.7683 " fill="none" id="user-org" style="stroke:#181818;stroke-width:1.0;stroke-dasharray:7.0,7.0;"/><line style="stroke:#181818;stroke-width:1.0;" x1="745.58" x2="745.58" y1="325.1583" y2="333.1583"/><line style="stroke:#181818;stroke-width:1.0;" x1="742.58" x2="742.58" y1="325.1583" y2="333.1583"/><line style="stroke:#181818;stroke-width:1.0;" x1="741.58" x2="749.58" y1="329.1583" y2="329.1583"/><line style="stroke:#181818;stroke-width:1.0;" x1="434.17" x2="440.17" y1="656.7683" y2="664.7683"/><line style="stroke:#181818;stroke-width:1.0;" x1="434.17" x2="428.17" y1="656.7683" y2="664.7683"/><line style="stroke:#181818;stroke-width:1.0;" x1="434.17" x2="434.17" y1="656.7683" y2="664.7683"/><ellipse cx="434.17" cy="650.7683" fill="none" rx="4" ry="4" style="stroke:#181818;stroke-width:1.0;"/><text fill="#000000" font-family="sans-serif" font-size="13" lengthAdjust="spacing" textLength="105" x="328.17" y="335.8266">helps organizing</text></g><!--link event to org--><g id="link_event_org"><path codeLine="129" d="M572.59,569.1583 C525.26,569.1583 486.83,569.1583 486.83,569.1583 C486.83,569.1583 486.83,603.7983 486.83,646.7683 " fill="none" id="event-org" style="stroke:#181818;stroke-width:1.0;stroke-dasharray:7.0,7.0;"/><line style="stroke:#181818;stroke-width:1.0;" x1="576.59" x2="576.59" y1="565.1583" y2="573.1583"/><line style="stroke:#181818;stroke-width:1.0;" x1="573.59" x2="573.59" y1="565.1583" y2="573.1583"/><line style="stroke:#181818;stroke-width:1.0;" x1="572.59" x2="580.59" y1="569.1583" y2="569.1583"/><line style="stroke:#181818;stroke-width:1.0;" x1="486.83" x2="492.83" y1="656.7683" y2="664.7683"/><line style="stroke:#181818;stroke-width:1.0;" x1="486.83" x2="480.83" y1="656.7683" y2="664.7683"/><line style="stroke:#181818;stroke-width:1.0;" x1="486.83" x2="486.83" y1="656.7683" y2="664.7683"/><ellipse cx="486.83" cy="650.7683" fill="none" rx="4" ry="4" style="stroke:#181818;stroke-width:1.0;"/><text fill="#000000" font-family="sans-serif" font-size="13" lengthAdjust="spacing" textLength="111" x="374.83" y="566.6566">managed by team</text></g><!--link user to org_request--><g id="link_user_org_request"><path codeLine="132" d="M858,346.0783 C858,430.5883 858,554.1983 858,638.7283 " fill="none" id="user-org_request" style="stroke:#181818;stroke-width:1.0;stroke-dasharray:7.0,7.0;"/><line style="stroke:#181818;stroke-width:1.0;" x1="854" x2="862" y1="342.0783" y2="342.0783"/><line style="stroke:#181818;stroke-width:1.0;" x1="854" x2="862" y1="345.0783" y2="345.0783"/><line style="stroke:#181818;stroke-width:1.0;" x1="858" x2="858" y1="346.0783" y2="338.0783"/><line style="stroke:#181818;stroke-width:1.0;" x1="858" x2="864" y1="648.7283" y2="656.7283"/><line style="stroke:#181818;stroke-width:1.0;" x1="858" x2="852" y1="648.7283" y2="656.7283"/><line style="stroke:#181818;stroke-width:1.0;" x1="858" x2="858" y1="648.7283" y2="656.7283"/><ellipse cx="858" cy="642.7283" fill="none" rx="4" ry="4" style="stroke:#181818;stroke-width:1.0;"/><text fill="#000000" font-family="sans-serif" font-size="13" lengthAdjust="spacing" textLength="99" x="859" y="493.9666">requests to join</text></g><!--link event to org_request--><g id="link_event_org_request"><path codeLine="133" d="M680,597.2083 C680,619.9583 680,617.6583 680,638.5083 " fill="none" id="event-org_request" style="stroke:#181818;stroke-width:1.0;stroke-dasharray:7.0,7.0;"/><line style="stroke:#181818;stroke-width:1.0;" x1="676" x2="684" y1="593.2083" y2="593.2083"/><line style="stroke:#181818;stroke-width:1.0;" x1="676" x2="684" y1="596.2083" y2="596.2083"/><line style="stroke:#181818;stroke-width:1.0;" x1="680" x2="680" y1="597.2083" y2="589.2083"/><line style="stroke:#181818;stroke-width:1.0;" x1="680" x2="686" y1="648.5083" y2="656.5083"/><line style="stroke:#181818;stroke-width:1.0;" x1="680" x2="674" y1="648.5083" y2="656.5083"/><line style="stroke:#181818;stroke-width:1.0;" x1="680" x2="680" y1="648.5083" y2="656.5083"/><ellipse cx="680" cy="642.5083" fill="none" rx="4" ry="4" style="stroke:#181818;stroke-width:1.0;"/><text fill="#000000" font-family="sans-serif" font-size="13" lengthAdjust="spacing" textLength="80" x="599" y="619.4266">has requests</text></g><!--link event to booking--><g id="link_event_booking"><path codeLine="136" d="M787.18,569.1583 C872.99,569.1583 975.37,569.1583 975.37,569.1583 C975.37,569.1583 975.37,591.4183 975.37,630.2683 " fill="none" id="event-booking" style="stroke:#181818;stroke-width:1.0;stroke-dasharray:7.0,7.0;"/><line style="stroke:#181818;stroke-width:1.0;" x1="783.18" x2="783.18" y1="573.1583" y2="565.1583"/><line style="stroke:#181818;stroke-width:1.0;" x1="786.18" x2="786.18" y1="573.1583" y2="565.1583"/><line style="stroke:#181818;stroke-width:1.0;" x1="787.18" x2="779.18" y1="569.1583" y2="569.1583"/><line style="stroke:#181818;stroke-width:1.0;" x1="975.37" x2="981.37" y1="640.2683" y2="648.2683"/><line style="stroke:#181818;stroke-width:1.0;" x1="975.37" x2="969.37" y1="640.2683" y2="648.2683"/><line style="stroke:#181818;stroke-width:1.0;" x1="975.37" x2="975.37" y1="640.2683" y2="648.2683"/><ellipse cx="975.37" cy="634.2683" fill="none" rx="4" ry="4" style="stroke:#181818;stroke-width:1.0;"/><text fill="#000000" font-family="sans-serif" font-size="13" lengthAdjust="spacing" textLength="84" x="831.83" y="565.7266">occupies slot</text></g><!--link user to booking--><g id="link_user_booking"><path codeLine="138" d="M978.25,353.0783 C978.25,434.8383 978.25,544.5283 978.25,630.2783 " fill="none" id="user-booking" style="stroke:#181818;stroke-width:1.0;stroke-dasharray:7.0,7.0;"/><line style="stroke:#181818;stroke-width:1.0;" x1="978.25" x2="978.25" y1="349.0783" y2="338.0783"/><ellipse cx="978.25" cy="349.0783" fill="none" rx="4" ry="4" style="stroke:#181818;stroke-width:1.0;"/><line style="stroke:#181818;stroke-width:1.0;" x1="974.25" x2="982.25" y1="342.0783" y2="342.0783"/><line style="stroke:#181818;stroke-width:1.0;" x1="978.25" x2="984.25" y1="640.2783" y2="648.2783"/><line style="stroke:#181818;stroke-width:1.0;" x1="978.25" x2="972.25" y1="640.2783" y2="648.2783"/><line style="stroke:#181818;stroke-width:1.0;" x1="978.25" x2="978.25" y1="640.2783" y2="648.2783"/><ellipse cx="978.25" cy="634.2783" fill="none" rx="4" ry="4" style="stroke:#181818;stroke-width:1.0;"/><text fill="#000000" font-family="sans-serif" font-size="13" lengthAdjust="spacing" textLength="114" x="892.25" y="506.7466">administers space</text></g><!--SRC=[jLTVJnj747-_Jp6wXzf6W4WbNb0KoR6FnYsSBMEYlfqMUsjlQz-vT-UaD21HaEXB5QIs8bL4_wKVe8I4GiEVVeMzRzIPtRDzjiz08_N1tDxExCtCRsP-iuGYR7Emgb0KhEcppXAiLPR1UiBT43w0WlVKyxyGRXFMDeEGTuoMQ72e2x_UvaQ0WYx3Cz0MBWytknmyFsnvXf61kRaviEnQgLQorY0hVvT_o5VoP_aBhbx9_Hp93GDjY70JpFM0-u49B80Uhk2P0J0Z6h04w-kb8jo_N_damGFSmoC0Bkjmb3pELmkFyjNilOM57Exo3XFjoUqk2m8CeE6qMD1AY3zSN2HntUSiv0s7XIYhbLQjjLf-jM9i3pshUcskFVDnfJnBzotsBjs_RK94_Xhjo6jv6HtAl-ILF8PeLnxBr_92daVxqG78j_A27cVo91CTuEDTj0VoQCb6-5xAQpny7dqJxKPxyaGUHz_27CZVy7iNqM5k54Xdw3J1wIGzLnkZxi_2CeO0MawwgV8aA4MEMGyx-AgjD0Rl_obrYof53HxKVT4DXUTI4gnFQxZPugpXJFYg_CIwaZzGtFX380YsK_aF8hAZyBp4joj2wNy3_SSqU_9yF0dZ8Abenf2wAI5QF3nmQrPKozPOKvlZzEQ4hFaUDRkeItRamucltfpaKF59ejKMfgUvwo6d-4xFRq_sPjkhCzAU47JOLmw18kgYoz0nF5goQrI_8d2wlOss25gSd7jOBgzOUHiIZRwnELPDDvB0dSi7Tq_b6rGw0VepAC5H19sq34taIMzChuZ1WRiLX5FbJH64li8oPZBUl3c5C-cTPwHwrnVvoWxtfo7v0bjcbx11HDyYceJH8QWMUuEOuWjs7wcefXiBekmtcIk-xay9pxyjWdG_RunDKv-hCvBEu1J30SRmJfw3AeS9z_UZm-WvP2lSRT3G348ihLnwC2eZc9ulUpm81t4vljwuIzlEnBfeAPqifrNKG4R-zQY3B7jzDPkfM7QnP7-KcOLClbAfbXzRHLfNhO-jGWtNENNezgavk3Ku3psFdZgy3VtoNgcZ3A6tFfQ-K6HLpDSiCax3tssax4wFhL2sbqlLLHrS8MyNh9KukA3BwjpfC9SrfysU8-G3h5wGhwCzudsmrrTMPW57mhMk2pKHyAUAFDgXGa7j4tb6fGEgIbGDzKSKtPIgrag-LYhRQuzA5ReklP3VP-IV-7WfVuhlIbgHPWjUozI4noSE6IH0agkBqzRM_BptB37rby1inNSNqr0xQIfuIH9D5papz4nZyak9eONA7TxPG0NlCzD82ARhatrz9Z1L4zrbU2C4Y2RsrYdkdSk_4mCQztD9ozlU_FpMbhuuaZcyEM0a6vlcu1Qgo1SALBKqVSRHwlUxgUiw61mafbRQMYEfdg3jE4HSciPmTxeoFT1y0uGxi3J2qHCE4b_ZmJx11kQeGx6Od61XYBt04p4CYHEo-Needd2eSTR9JHWXIbNmjRkAX-WKzkgOhLXBDmYX325-RToQnhdFR0CsJ3Kwu3iLONmYzE1pZ_0PDvxKLeNTPy- -1yF_LoOIrsSVFEhLwxskm0uAsbveKb4UZJVjPR_DZt6FvZyolBe9xiHtGMfzl0aS4_tJr292eBl2LVISvFZyRfPENsYk617XwY1Xeiya-BbJUJR18DWdsGMC7kxbOlIyyO1OeoDSNHsQmqpZNm00]--></g></svg>