<?xml version="1.0" encoding="us-ascii" standalone="no"?><svg xmlns="http://www.w3.org/2000/svg" xmlns:xlink="http://www.w3.org/1999/xlink" contentStyleType="text/css" height="1209px" preserveAspectRatio="none" style="width:1110px;height:1209px;background:#FFFFFF;" version="1.1" viewBox="0 0 1110 1209" width="1110px" zoomAndPan="magnify"><defs/><g><text fill="#000000" font-family="sans-serif" font-size="14" font-weight="bold" lengthAdjust="spacing" textLength="415" x="340.635" y="23.5352">Use Case Diagram: &#1057;&#1090;&#1091;&#1076;&#1087;&#1072;&#1088;&#1083;&#1072;&#1084;&#1077;&#1085;&#1090; &#1079; &#1076;&#1077;&#1090;&#1072;&#1083;&#1110;&#1079;&#1072;&#1094;&#1110;&#1108;&#1102; &#1088;&#1086;&#1083;&#1077;&#1081;</text><!--cluster ??????? ??????????????--><g id="cluster_&#1057;&#1080;&#1089;&#1090;&#1077;&#1084;&#1072; &#1057;&#1090;&#1091;&#1076;&#1087;&#1072;&#1088;&#1083;&#1072;&#1084;&#1077;&#1085;&#1090;&#1091;"><rect fill="none" height="1159" rx="2.5" ry="2.5" style="stroke:#181818;stroke-width:1.0;" width="345.27" x="750" y="44.4883"/><text fill="#000000" font-family="sans-serif" font-size="14" font-weight="bold" lengthAdjust="spacing" textLength="186" x="829.635" y="60.0234">&#1057;&#1080;&#1089;&#1090;&#1077;&#1084;&#1072; &#1057;&#1090;&#1091;&#1076;&#1087;&#1072;&#1088;&#1083;&#1072;&#1084;&#1077;&#1085;&#1090;&#1091;</text></g><g id="elem_UC_ViewPast"><ellipse cx="922.6263" cy="1164.4896" fill="#F1F1F1" rx="103.3563" ry="23.0713" style="stroke:#181818;stroke-width:0.5;"/><text fill="#000000" font-family="sans-serif" font-size="14" lengthAdjust="spacing" textLength="171" x="837.1263" y="1167.7806">&#1055;&#1077;&#1088;&#1077;&#1075;&#1083;&#1103;&#1076; &#1072;&#1088;&#1093;&#1110;&#1074;&#1091; &#1079;&#1072;&#1093;&#1086;&#1076;&#1110;&#1074;</text></g><g id="elem_UC_ViewFuture"><ellipse cx="922.6314" cy="1005.4886" fill="#F1F1F1" rx="115.8014" ry="25.5603" style="stroke:#181818;stroke-width:0.5;"/><text fill="#000000" font-family="sans-serif" font-size="14" lengthAdjust="spacing" textLength="198" x="823.6314" y="1008.7796">&#1055;&#1077;&#1088;&#1077;&#1075;&#1083;&#1103;&#1076; &#1084;&#1072;&#1081;&#1073;&#1091;&#1090;&#1085;&#1110;&#1093; &#1079;&#1072;&#1093;&#1086;&#1076;&#1110;&#1074;</text></g><g id="elem_UC_Register"><ellipse cx="922.6262" cy="1086.4895" fill="#F1F1F1" rx="87.7062" ry="19.9412" style="stroke:#181818;stroke-width:0.5;"/><text fill="#000000" font-family="sans-serif" font-size="14" lengthAdjust="spacing" textLength="136" x="854.6262" y="1089.7805">&#1056;&#1077;&#1108;&#1089;&#1090;&#1088;&#1072;&#1094;&#1110;&#1103; &#1085;&#1072; &#1079;&#1072;&#1093;&#1110;&#1076;</text></g><g id="elem_UC_CreateEvent"><ellipse cx="922.6335" cy="647.489" fill="#F1F1F1" rx="123.7535" ry="27.1507" style="stroke:#181818;stroke-width:0.5;"/><text fill="#000000" font-family="sans-serif" font-size="14" lengthAdjust="spacing" textLength="215" x="815.1335" y="650.78">&#1057;&#1090;&#1074;&#1086;&#1088;&#1077;&#1085;&#1085;&#1103;/&#1056;&#1077;&#1076;&#1072;&#1075;&#1091;&#1074;&#1072;&#1085;&#1085;&#1103; &#1110;&#1074;&#1077;&#1085;&#1090;&#1091;</text></g><g id="elem_UC_JoinOrg"><ellipse cx="922.6343" cy="734.4911" fill="#F1F1F1" rx="113.0143" ry="25.0029" style="stroke:#181818;stroke-width:0.5;"/><text fill="#000000" font-family="sans-serif" font-size="14" lengthAdjust="spacing" textLength="192" x="826.6343" y="737.7822">&#1044;&#1086;&#1083;&#1091;&#1095;&#1080;&#1090;&#1080;&#1089;&#1103; &#1076;&#1086; &#1086;&#1088;&#1075;&#1082;&#1086;&#1084;&#1110;&#1090;&#1077;&#1090;&#1091;</text></g><g id="elem_UC_ViewSlots"><ellipse cx="922.629" cy="825.4921" fill="#F1F1F1" rx="142.719" ry="30.9438" style="stroke:#181818;stroke-width:0.5;"/><text fill="#000000" font-family="sans-serif" font-size="14" lengthAdjust="spacing" textLength="255" x="795.129" y="828.7831">&#1055;&#1077;&#1088;&#1077;&#1075;&#1083;&#1103;&#1076; &#1074;&#1110;&#1083;&#1100;&#1085;&#1086;&#1075;&#1086; &#1095;&#1072;&#1089;&#1091; &#1074; &#1082;&#1086;&#1074;&#1086;&#1088;&#1082;&#1110;&#1085;&#1075;&#1091;</text></g><g id="elem_UC_BookSlotRequest"><ellipse cx="922.6347" cy="918.4872" fill="#F1F1F1" rx="122.3447" ry="26.8689" style="stroke:#181818;stroke-width:0.5;"/><text fill="#000000" font-family="sans-serif" font-size="14" lengthAdjust="spacing" textLength="212" x="816.6347" y="921.7782">&#1047;&#1072;&#1087;&#1080;&#1090; &#1085;&#1072; &#1073;&#1088;&#1086;&#1085;&#1102;&#1074;&#1072;&#1085;&#1085;&#1103; &#1095;&#1080;&#1090;&#1072;&#1083;&#1082;&#1080;</text></g><g id="elem_UC_BookSlot"><ellipse cx="922.6328" cy="277.4848" fill="#F1F1F1" rx="116.7328" ry="25.7466" style="stroke:#181818;stroke-width:0.5;"/><text fill="#000000" font-family="sans-serif" font-size="14" lengthAdjust="spacing" textLength="200" x="822.6328" y="280.7759">&#1041;&#1088;&#1086;&#1085;&#1102;&#1074;&#1072;&#1085;&#1085;&#1103; &#1089;&#1083;&#1086;&#1090;&#1091; (Approve)</text></g><g id="elem_UC_SpaceAdmin"><ellipse cx="922.6332" cy="371.4849" fill="#F1F1F1" rx="156.6332" ry="33.7266" style="stroke:#181818;stroke-width:0.5;"/><text fill="#000000" font-family="sans-serif" font-size="14" lengthAdjust="spacing" textLength="284" x="780.6332" y="374.7759">&#1040;&#1076;&#1084;&#1110;&#1085;&#1110;&#1089;&#1090;&#1088;&#1091;&#1074;&#1072;&#1085;&#1085;&#1103; &#1087;&#1088;&#1086;&#1089;&#1090;&#1086;&#1088;&#1091; &#1087;&#1110;&#1076; &#1095;&#1072;&#1089; &#1110;&#1074;&#1077;&#1085;&#1090;&#1091;</text></g><g id="elem_UC_DeptStats"><ellipse cx="922.6293" cy="554.4901" fill="#F1F1F1" rx="140.8093" ry="30.5619" style="stroke:#181818;stroke-width:0.5;"/><text fill="#000000" font-family="sans-serif" font-size="14" lengthAdjust="spacing" textLength="251" x="797.1293" y="557.7812">&#1055;&#1077;&#1088;&#1077;&#1075;&#1083;&#1103;&#1076; &#1089;&#1090;&#1072;&#1090;&#1080;&#1089;&#1090;&#1080;&#1082;&#1080; &#1076;&#1077;&#1087;&#1072;&#1088;&#1090;&#1072;&#1084;&#1077;&#1085;&#1090;&#1091;</text></g><g id="elem_UC_DeanReport"><ellipse cx="922.6321" cy="190.4847" fill="#F1F1F1" rx="118.1321" ry="26.0264" style="stroke:#181818;stroke-width:0.5;"/><text fill="#000000" font-family="sans-serif" font-size="14" lengthAdjust="spacing" textLength="203" x="821.1321" y="193.7757">&#1043;&#1077;&#1085;&#1077;&#1088;&#1072;&#1094;&#1110;&#1103; &#1079;&#1074;&#1110;&#1090;&#1091; &#1076;&#1083;&#1103; &#1044;&#1077;&#1082;&#1072;&#1085;&#1072;&#1090;&#1091;</text></g><g id="elem_UC_GlobalStats"><ellipse cx="922.625" cy="464.4833" fill="#F1F1F1" rx="111.625" ry="24.725" style="stroke:#181818;stroke-width:0.5;"/><text fill="#000000" font-family="sans-serif" font-size="14" lengthAdjust="spacing" textLength="189" x="828.125" y="467.7743">&#1043;&#1083;&#1086;&#1073;&#1072;&#1083;&#1100;&#1085;&#1072; &#1072;&#1085;&#1072;&#1083;&#1110;&#1090;&#1080;&#1082;&#1072; &#1090;&#1072; KPI</text></g><g id="elem_UC_ManageUsers"><ellipse cx="922.6326" cy="104.4908" fill="#F1F1F1" rx="111.1626" ry="24.6325" style="stroke:#181818;stroke-width:0.5;"/><text fill="#000000" font-family="sans-serif" font-size="14" lengthAdjust="spacing" textLength="188" x="828.6326" y="107.7818">&#1059;&#1087;&#1088;&#1072;&#1074;&#1083;&#1110;&#1085;&#1085;&#1103; &#1082;&#1086;&#1088;&#1080;&#1089;&#1090;&#1091;&#1074;&#1072;&#1095;&#1072;&#1084;&#1080;</text></g><!--entity Guest--><g id="elem_Guest"><ellipse cx="22" cy="1086.7483" fill="#F1F1F1" rx="8" ry="8" style="stroke:#181818;stroke-width:0.5;"/><path d="M22,1094.7483 L22,1121.7483 M9,1102.7483 L35,1102.7483 M22,1121.7483 L9,1136.7483 M22,1121.7483 L35,1136.7483 " fill="none" style="stroke:#181818;stroke-width:0.5;"/><text fill="#000000" font-family="sans-serif" font-size="14" lengthAdjust="spacing" textLength="32" x="6" y="1151.7834">&#1043;&#1110;&#1089;&#1090;&#1100;</text></g><!--entity Student--><g id="elem_Student"><ellipse cx="126.5" cy="1015.7483" fill="#F1F1F1" rx="8" ry="8" style="stroke:#181818;stroke-width:0.5;"/><path d="M126.5,1023.7483 L126.5,1050.7483 M113.5,1031.7483 L139.5,1031.7483 M126.5,1050.7483 L113.5,1065.7483 M126.5,1050.7483 L139.5,1065.7483 " fill="none" style="stroke:#181818;stroke-width:0.5;"/><text fill="#000000" font-family="sans-serif" font-size="14" lengthAdjust="spacing" textLength="57" x="98" y="1080.7834">&#1057;&#1090;&#1091;&#1076;&#1077;&#1085;&#1090;</text></g><!--entity SPMember--><g id="elem_SPMember"><ellipse cx="249" cy="661.7483" fill="#F1F1F1" rx="8" ry="8" style="stroke:#181818;stroke-width:0.5;"/><path d="M249,669.7483 L249,696.7483 M236,677.7483 L262,677.7483 M249,696.7483 L236,711.7483 M249,696.7483 L262,711.7483 " fill="none" style="stroke:#181818;stroke-width:0.5;"/><text fill="#000000" font-family="sans-serif" font-size="14" lengthAdjust="spacing" textLength="68" x="215" y="726.7834">&#1063;&#1083;&#1077;&#1085; &#1057;&#1055;&#1060;</text></g><!--entity Admin--><g id="elem_Admin"><ellipse cx="424.5" cy="114.7483" fill="#F1F1F1" rx="8" ry="8" style="stroke:#181818;stroke-width:0.5;"/><path d="M424.5,122.7483 L424.5,149.7483 M411.5,130.7483 L437.5,130.7483 M424.5,149.7483 L411.5,164.7483 M424.5,149.7483 L437.5,164.7483 " fill="none" style="stroke:#181818;stroke-width:0.5;"/><text fill="#000000" font-family="sans-serif" font-size="14" lengthAdjust="spacing" textLength="163" x="343" y="179.7834">&#1040;&#1076;&#1084;&#1110;&#1085; (&#1058;&#1077;&#1093;. &#1087;&#1110;&#1076;&#1090;&#1088;&#1080;&#1084;&#1082;&#1072;)</text></g><!--entity SpaceMember--><g id="elem_SpaceMember"><ellipse cx="424.5" cy="302.7483" fill="#F1F1F1" rx="8" ry="8" style="stroke:#181818;stroke-width:0.5;"/><path d="M424.5,310.7483 L424.5,337.7483 M411.5,318.7483 L437.5,318.7483 M424.5,337.7483 L411.5,352.7483 M424.5,337.7483 L437.5,352.7483 " fill="none" style="stroke:#181818;stroke-width:0.5;"/><text fill="#000000" font-family="sans-serif" font-size="14" lengthAdjust="spacing" textLength="100" x="374.5" y="367.7834">&#1072;&#1076;&#1084;&#1110;&#1085; &#1095;&#1080;&#1090;&#1072;&#1083;&#1082;&#1080;</text></g><!--entity DeptHead--><g id="elem_DeptHead"><ellipse cx="424.5" cy="525.7483" fill="#F1F1F1" rx="8" ry="8" style="stroke:#181818;stroke-width:0.5;"/><path d="M424.5,533.7483 L424.5,560.7483 M411.5,541.7483 L437.5,541.7483 M424.5,560.7483 L411.5,575.7483 M424.5,560.7483 L437.5,575.7483 " fill="none" style="stroke:#181818;stroke-width:0.5;"/><text fill="#000000" font-family="sans-serif" font-size="14" lengthAdjust="spacing" textLength="153" x="348" y="590.7834">&#1043;&#1086;&#1083;&#1086;&#1074;&#1072; &#1044;&#1077;&#1087;&#1072;&#1088;&#1090;&#1072;&#1084;&#1077;&#1085;&#1090;&#1091;</text></g><!--entity CoworkingHead--><g id="elem_CoworkingHead"><ellipse cx="636" cy="168.7483" fill="#F1F1F1" rx="8" ry="8" style="stroke:#181818;stroke-width:0.5;"/><path d="M636,176.7483 L636,203.7483 M623,184.7483 L649,184.7483 M636,203.7483 L623,218.7483 M636,203.7483 L649,218.7483 " fill="none" style="stroke:#181818;stroke-width:0.5;"/><text fill="#000000" font-family="sans-serif" font-size="14" lengthAdjust="spacing" textLength="140" x="566" y="233.7834">&#1043;&#1086;&#1083;&#1086;&#1074;&#1072; &#1095;&#1080;&#1090;&#1072;&#1083;&#1082;&#1072;&#1076;&#1077;&#1087;&#1091;</text></g><!--entity SPHead--><g id="elem_SPHead"><ellipse cx="636" cy="434.7483" fill="#F1F1F1" rx="8" ry="8" style="stroke:#181818;stroke-width:0.5;"/><path d="M636,442.7483 L636,469.7483 M623,450.7483 L649,450.7483 M636,469.7483 L623,484.7483 M636,469.7483 L649,484.7483 " fill="none" style="stroke:#181818;stroke-width:0.5;"/><text fill="#000000" font-family="sans-serif" font-size="14" lengthAdjust="spacing" textLength="82" x="595" y="499.7834">&#1043;&#1086;&#1083;&#1086;&#1074;&#1072; &#1057;&#1055;&#1060;</text></g><!--reverse link Guest to Student--><g id="link_Guest_Student"><path d="M52.9195,1095.7625 C68.5195,1084.9625 78.39,1078.1183 97.54,1064.8583 " fill="none" id="Guest-backto-Student" style="stroke:#181818;stroke-width:1.0;"/><polygon fill="none" points="38.12,1106.0083,56.3347,1100.6957,49.5042,1090.8293,38.12,1106.0083" style="stroke:#181818;stroke-width:1.0;"/></g><!--reverse link Student to SPMember--><g id="link_Student_SPMember"><path d="M146.4208,989.8886 C169.6008,921.7986 211.72,798.0583 234.89,729.9983 " fill="none" id="Student-backto-SPMember" style="stroke:#181818;stroke-width:1.0;"/><polygon fill="none" points="140.62,1006.9283,152.1007,991.8222,140.741,987.955,140.62,1006.9283" style="stroke:#181818;stroke-width:1.0;"/></g><!--reverse link SPMember to Admin--><g id="link_SPMember_Admin"><path d="M256.6329,634.8986 C266.0429,559.9686 289.54,408.7783 343,276.4883 C356.48,243.1383 377.9,208.5383 395.26,183.1283 " fill="none" id="SPMember-backto-Admin" style="stroke:#181818;stroke-width:1.0;"/><polygon fill="none" points="254.39,652.7583,262.5861,635.6462,250.6797,634.1509,254.39,652.7583" style="stroke:#181818;stroke-width:1.0;"/></g><!--reverse link SPMember to SpaceMember--><g id="link_SPMember_SpaceMember"><path d="M276.4009,636.861 C309.7009,567.941 371.4,440.2783 404.8,371.1783 " fill="none" id="SPMember-backto-SpaceMember" style="stroke:#181818;stroke-width:1.0;"/><polygon fill="none" points="268.57,653.0683,281.8033,639.4712,270.9984,634.2507,268.57,653.0683" style="stroke:#181818;stroke-width:1.0;"/></g><!--reverse link SPMember to DeptHead--><g id="link_SPMember_DeptHead"><path d="M297.6148,654.1616 C323.4148,633.9316 345.32,616.7683 374.39,593.9783 " fill="none" id="SPMember-backto-DeptHead" style="stroke:#181818;stroke-width:1.0;"/><polygon fill="none" points="283.45,665.2683,301.317,658.8832,293.9125,649.44,283.45,665.2683" style="stroke:#181818;stroke-width:1.0;"/></g><!--reverse link DeptHead to SPHead--><g id="link_DeptHead_SPHead"><path d="M517.9403,515.3381 C549.4403,501.6581 568.2,493.5083 594.58,482.0483 " fill="none" id="DeptHead-backto-SPHead" style="stroke:#181818;stroke-width:1.0;"/><polygon fill="none" points="501.43,522.5083,520.3303,520.8415,515.5502,509.8347,501.43,522.5083" style="stroke:#181818;stroke-width:1.0;"/></g><!--reverse link SpaceMember to CoworkingHead--><g id="link_SpaceMember_CoworkingHead"><path d="M490.0439,291.2001 C519.9239,272.0901 543.08,257.2883 574.73,237.0383 " fill="none" id="SpaceMember-backto-CoworkingHead" style="stroke:#181818;stroke-width:1.0;"/><polygon fill="none" points="474.88,300.8983,493.2767,296.2547,486.8112,286.1454,474.88,300.8983" style="stroke:#181818;stroke-width:1.0;"/></g><!--link Guest to UC_ViewPast--><g id="link_Guest_UC_ViewPast"><path d="M38.34,1121.7383 C74.43,1133.6083 167.73,1161.4883 248,1161.4883 C1103.27,1165.4883 1103.27,1165.4883 425.5,1161.4883 C561.59,1161.4883 712.6802,1162.5757 813.0102,1163.4557 " fill="none" id="Guest-to-UC_ViewPast" style="stroke:#181818;stroke-width:1.0;"/><polygon fill="#181818" points="819.01,1163.5083,810.0454,1159.4295,814.0102,1163.4644,809.9753,1167.4292,819.01,1163.5083" style="stroke:#181818;stroke-width:1.0;"/></g><!--link Student to UC_ViewFuture--><g id="link_Student_UC_ViewFuture"><path d="M155.3,1044.0883 C258.38,1038.8983 616.4576,1020.8601 803.2576,1011.4501 " fill="none" id="Student-to-UC_ViewFuture" style="stroke:#181818;stroke-width:1.0;"/><polygon fill="#181818" points="809.25,1011.1483,800.0602,1007.6061,804.2563,1011.3998,800.4626,1015.596,809.25,1011.1483" style="stroke:#181818;stroke-width:1.0;"/></g><!--link Student to UC_Register--><g id="link_Student_UC_Register"><path d="M155.3,1046.9283 C263.67,1052.5183 654.478,1072.6989 830.528,1081.7889 " fill="none" id="Student-to-UC_Register" style="stroke:#181818;stroke-width:1.0;"/><polygon fill="#181818" points="836.52,1082.0983,827.7382,1077.6395,831.5267,1081.8405,827.3257,1085.6289,836.52,1082.0983" style="stroke:#181818;stroke-width:1.0;"/></g><!--link SPMember to UC_CreateEvent--><g id="link_SPMember_UC_CreateEvent"><path d="M283.48,685.6383 C301.13,682.7583 323.18,679.4883 343,677.4883 C500.01,661.6383 675.8728,654.1313 793.1728,650.5513 " fill="none" id="SPMember-to-UC_CreateEvent" style="stroke:#181818;stroke-width:1.0;"/><polygon fill="#181818" points="799.17,650.3683,790.0522,646.6447,794.1723,650.5208,790.2962,654.641,799.17,650.3683" style="stroke:#181818;stroke-width:1.0;"/></g><!--link SPMember to UC_JoinOrg--><g id="link_SPMember_UC_JoinOrg"><path d="M283.31,693.6183 C378.99,699.7483 651.7822,717.2151 807.4122,727.1751 " fill="none" id="SPMember-to-UC_JoinOrg" style="stroke:#181818;stroke-width:1.0;"/><polygon fill="#181818" points="813.4,727.5583,804.6738,722.9916,808.4102,727.2389,804.1629,730.9753,813.4,727.5583" style="stroke:#181818;stroke-width:1.0;"/></g><!--link SPMember to UC_ViewSlots--><g id="link_SPMember_UC_ViewSlots"><path d="M283.45,700.6783 C301.1,705.3883 323.15,711.0483 343,715.4883 C504.16,751.5583 686.3496,784.865 803.2696,805.305 " fill="none" id="SPMember-to-UC_ViewSlots" style="stroke:#181818;stroke-width:1.0;"/><polygon fill="#181818" points="809.18,806.3383,801.0033,800.8482,804.2547,805.4772,799.6256,808.7286,809.18,806.3383" style="stroke:#181818;stroke-width:1.0;"/></g><!--link SPMember to UC_BookSlotRequest--><g id="link_SPMember_UC_BookSlotRequest"><path d="M283.24,718.6883 C300.29,731.5883 321.87,746.3383 343,756.4883 C503.22,833.4183 700.5748,878.5816 818.6148,900.9416 " fill="none" id="SPMember-to-UC_BookSlotRequest" style="stroke:#181818;stroke-width:1.0;"/><polygon fill="#181818" points="824.51,902.0583,816.4117,896.4531,819.5974,901.1277,814.9228,904.3133,824.51,902.0583" style="stroke:#181818;stroke-width:1.0;"/></g><!--link SpaceMember to UC_BookSlot--><g id="link_SpaceMember_UC_BookSlot"><path d="M474.88,327.0183 C554.42,318.1983 706.6265,301.3194 811.8065,289.6594 " fill="none" id="SpaceMember-to-UC_BookSlot" style="stroke:#181818;stroke-width:1.0;"/><polygon fill="#181818" points="817.77,288.9983,808.3841,286.0143,812.8004,289.5492,809.2655,293.9656,817.77,288.9983" style="stroke:#181818;stroke-width:1.0;"/></g><!--link SpaceMember to UC_SpaceAdmin--><g id="link_SpaceMember_UC_SpaceAdmin"><path d="M474.88,336.3683 C544.19,341.8183 667.2085,351.488 768.8385,359.478 " fill="none" id="SpaceMember-to-UC_SpaceAdmin" style="stroke:#181818;stroke-width:1.0;"/><polygon fill="#181818" points="774.82,359.9483,766.1612,355.2552,769.8354,359.5564,765.5342,363.2306,774.82,359.9483" style="stroke:#181818;stroke-width:1.0;"/></g><!--link DeptHead to UC_DeptStats--><g id="link_DeptHead_UC_DeptStats"><path d="M501.39,555.3383 C575.63,555.1883 684.47,554.9708 775.35,554.7808 " fill="none" id="DeptHead-to-UC_DeptStats" style="stroke:#181818;stroke-width:1.0;"/><polygon fill="#181818" points="781.35,554.7683,772.3417,550.7871,776.35,554.7787,772.3584,558.7871,781.35,554.7683" style="stroke:#181818;stroke-width:1.0;"/></g><!--link CoworkingHead to UC_DeanReport--><g id="link_CoworkingHead_UC_DeanReport"><path d="M706.27,196.5383 C735.97,195.7083 765.4924,194.8763 799.0524,193.9363 " fill="none" id="CoworkingHead-to-UC_DeanReport" style="stroke:#181818;stroke-width:1.0;"/><polygon fill="#181818" points="805.05,193.7683,795.9415,190.0218,800.052,193.9083,796.1655,198.0187,805.05,193.7683" style="stroke:#181818;stroke-width:1.0;"/></g><!--link SPHead to UC_GlobalStats--><g id="link_SPHead_UC_GlobalStats"><path d="M677.48,464.4883 C712.17,464.4883 757.8,464.4883 804.66,464.4883 " fill="none" id="SPHead-to-UC_GlobalStats" style="stroke:#181818;stroke-width:1.0;"/><polygon fill="#181818" points="810.66,464.4883,801.66,460.4883,805.66,464.4883,801.66,468.4883,810.66,464.4883" style="stroke:#181818;stroke-width:1.0;"/></g><!--link Admin to UC_ManageUsers--><g id="link_Admin_UC_ManageUsers"><path d="M506.32,137.9683 C591.16,131.1283 718.8894,120.8303 811.5694,113.3603 " fill="none" id="Admin-to-UC_ManageUsers" style="stroke:#181818;stroke-width:1.0;"/><polygon fill="#181818" points="817.55,112.8783,808.2577,109.6143,812.5662,113.28,808.9004,117.5884,817.55,112.8783" style="stroke:#181818;stroke-width:1.0;"/></g><!--SRC=[XLTTJnjN47tVNt752xQAgVhr4bMLg4D3MaL1k5JgKxM1hMi1jhjU4bLf9OCBRIKKlY62q58IjI-LiXWx68FDNvZzHpqpUzVUNQ-JH3RBtdjdvfvpvWEdu2nQQhPYgQo9hxi5Cs-RItSK_UsjUZLgq2svNfMkoQKRQbB7MrLqgV2-wQtYtRLtG9VOiUuTU7lUCuMjNMnkqfMnQ7tlAAUax4B-1qVD5snhpYcKYaPbeL0ict2YokRSWfctSivF286NpM9-qJACKPN9PDH4zkk7Cpb-D0nppYdPQeHsuMO5WMsCABEYxYrR5QUt5WGiGSfwpbcUjuhz7VzAP1tSZVwYL_wMwGVMqYFBxktPWeKRNAgZKdI6IwwDAxh5xmrOhr8B8BJ9JSlPYVcbGf6ZXRrRR5sdblSh0lmD0Hne9F0W8GcAWfX64IRhFQTkpoaEjtnWuQVbXmYOh5YKku9ob-haAjfBj5-JmtUjiZDbcVE99oFEN3zEVIvRUbAoGLH-wE48YB9BypPrVt9cOYOxzIqGv3rR2F28Nj8Edaxm_tNQvtHKHIbJ2BrBRwYfgEwjK7DCUNzGL_KvDuHlzUdFS19GorQYjAgC0XDD9MT2nYzzHYwztt7fAhyLDbjCRnMthmjsBKDRrcu2UR2VlZG0MfFUn5oCAK6ooVTmlJtPvAs5p0CFbyxvIlv5EupYfKHrBaGWbYwr9JZiI1k1Tp-Mljo6oIMuUXoHznHqMOE_jkJfeS9c9h4BLsssGnTUBUOjh3hs6Q5Ub3BScwz1V1gufTPZp7nFbmEseoHkKblHnO3lGRNtqGUiT1KwWsHapb6H0gS1jya19633uTJOaEJ9jRSXuhc2KF7ZLlW0SUDiQaTuqHB0EdZocOreUYY3AJeNGNIyPwB83fusqsCAfhcKH1CZ57KALRWkhZf1kgJ7ZH29_fsZQQqJTZOtgR8JkKbTQtLLvegAq5P4wpV2pB2Em3NZgM4e_FCjqZOTqvzqf3v08pb4ukpYSqp_8VltnGblNQvOSznoHa1uKqH_0MWtgQ64tJMka81UsiiQhjdW5r9lPhFVVLEmdaoRgFxli7GZOZZtQXgPjRVO-sBPMRQjcCLJMDmJGAkwpMqgdRbiXpj3O6F6oXSg3kTB0X8V0ebNg88dg8N_q3hUdJ0cd3t7jC-_1D9FqJR3x6raMFs-paJqwGJem8aMQzFNoliSCVQxhDk-X1HVDj8P473Mjap7cdpCXJHgTazwLqsBarMmoK50TEpgGdB4LtOpRF3BKg7uqCw_YnG8LITHb_EKSy252t1TJqo_C4cvnP9JKJ4FXxZcBOUggKd8eQJE2fEVbqeBR7B6-b662RQRHDz7eEy8JpludE9f7OpjSklTbmvtYbbXYru8aMTIvvFpcrf996udXRl2kStWgjH4kMoN7blfUD0nCxt-f2j0DI80wKDToUSkB-cnHeEVg0yf7xhj963oiM2oZykl0vSJUWvXdp520A1Vcn9l79U4XELggU5RQk6mKX-4n-KyvvXE9MPyr-y-uOJLnP5ltM2N_j3K5d3Sg4spE6ELIxOpOFHQ-dHG_btb7-OHJqViSijtrLVJzmDhznPBZyn5FyOa13-vesGyUY5wMaS1E0EQM_Y6oX9WUzaR9gubDuJNjYHBImyZ89mPvL4cYEA1MKGznuXlLunVWgAFdDaPfTVuSKJFUmDPVDRAP3wBLDk1eQqtBeLswZeQM-bNny6H3IKF8L_wUa6z2uyhd1aCC-FT5gJhVf0Om_j3XNOIhcZnjQ0unT_tgih0Ihmul7NsIaN_2X0z91MpTAGhnpmbhOMpC3wh31dz4GoNn8lmi9BkZp_QS3z_1kmU9Sn0gS4_S_pcf9ChRKIcYxwNNaObptg6FuW5-oCv4vww3S4Ws1OMzVy0]--></g></svg>